<svg xmlns="http://www.w3.org/2000/svg" width="182.889" height="41.709" viewBox="0 0 182.889 41.709">
  <g id="Gruppe_2000" data-name="Gruppe 2000" transform="translate(-19.412 -11.046)">
    <text id="EHACare" transform="translate(76.302 13.755)" fill="#fff" font-size="28" font-family="Quicksand-Medium, Quicksand" font-weight="500"><tspan x="0" y="28">EHA</tspan><tspan y="28" font-family="Quicksand-Light, Quicksand" font-weight="300">Care</tspan></text>
    <g id="Gruppe_1965" data-name="Gruppe 1965" transform="translate(-895.886 -825.59)">
      <path id="Pfad_1829" data-name="Pfad 1829" d="M298.643-3151.52h-3.978a5.018,5.018,0,0,0,.76-2.659v-17.466h3.218a10.074,10.074,0,0,1,10.063,10.063A10.074,10.074,0,0,1,298.643-3151.52Z" transform="translate(2976.011 3297.616) rotate(-45)" fill="#41b5fd"/>
      <path id="Pfad_1828" data-name="Pfad 1828" d="M10.063,0A10.063,10.063,0,0,1,20.125,10.063v22.7a3.019,3.019,0,0,1-3.019,3.019H3.019A3.019,3.019,0,0,1,0,32.76v-22.7A10.063,10.063,0,0,1,10.063,0Z" transform="translate(915.298 851.355) rotate(-45)" fill="#4174fd"/>
    </g>
  </g>
</svg>
